<?xml version="1.0" standalone="no"?>
<!DOCTYPE svg PUBLIC "-//W3C//DTD SVG 20010904//EN"
 "http://www.w3.org/TR/2001/REC-SVG-20010904/DTD/svg10.dtd">
<svg version="1.0" xmlns="http://www.w3.org/2000/svg"
 width="193.000000pt" height="198.000000pt" viewBox="0 0 193.000000 198.000000"
 preserveAspectRatio="xMidYMid meet">

<g transform="translate(0.000000,198.000000) scale(0.100000,-0.100000)"
fill="#000000" stroke="none">
<path d="M90 1958 c-33 -17 -51 -35 -67 -68 l-23 -44 0 -856 0 -856 23 -44
c16 -33 34 -51 67 -67 l44 -23 831 0 831 0 44 22 c33 17 51 35 68 68 l22 44 0
856 0 856 -22 44 c-17 33 -35 51 -68 68 l-44 22 -831 0 -831 0 -44 -22z m436
-283 c53 -35 54 -41 54 -610 l0 -525 473 0 c429 0 475 -2 507 -18 76 -38 82
-151 11 -199 -24 -17 -69 -18 -561 -21 -294 -2 -555 0 -579 3 -32 5 -54 16
-78 40 l-33 33 2 626 3 625 29 30 c16 16 38 32 50 35 36 8 96 -1 122 -19z
m399 11 c56 -24 69 -61 75 -225 l5 -143 170 177 c200 209 230 227 312 188 64
-30 90 -102 59 -162 -8 -15 -80 -89 -160 -165 -80 -76 -146 -142 -146 -146 0
-4 75 -85 168 -180 92 -94 175 -187 186 -206 56 -104 -74 -215 -181 -154 -22
12 -122 110 -224 218 l-184 196 -5 -170 c-4 -137 -9 -175 -23 -202 -44 -80
-188 -78 -225 4 -19 40 -17 886 2 922 28 54 105 75 171 48z"/>
</g>
</svg>
