<svg xmlns="http://www.w3.org/2000/svg" viewBox="0 0 264 232" width="264" height="232">
	<style>
		tspan { white-space:pre }
		.shp0 { fill: #000000 } 
	</style>
	<g id="Layer">
		<path id="Layer" class="shp0" d="M17.3 4.1C28.2 13.6 32.9 34.8 27.5 50.1C25.7 55.1 22.1 60.3 13.1 71C4 81.7 1 88 0.3 97.6C-0.3 104.7 -0.1 105.4 3.3 112.3C6 117.5 10.1 122.9 18.5 131.9C26.6 140.6 31 146.3 33.3 150.9C36.3 157.1 36.5 158.1 36.5 168.5C36.5 182.5 34.3 193.5 27.5 213.2C24.7 221.6 22 229.3 21.5 230.2C20.8 231.9 22.2 232 43.3 232L65.9 232L70 221.2C72.3 215.3 75.8 204.4 77.7 197C80.9 184.9 81.3 182.1 81.4 170C81.5 157.2 81.4 156.2 78.7 150.9C77 147.4 71.2 140 63.7 131.8C57 124.3 50.1 115.8 48.5 112.9C45.9 108.2 45.5 106.5 45.5 99.5C45.6 88.9 48.9 81.8 59.9 69C64.4 63.8 69.2 57.2 70.6 54.4C78.4 38.5 74.9 15.7 62.9 4.5L58.1 0L35.4 0L12.7 0L17.3 4.1ZM106.2 2.5C119.9 11.8 124.8 38.4 115.8 55.1C114.2 58.3 109.2 65.1 104.9 70.2C94.5 82.3 91.8 87.9 91.2 98.1C90.8 105.5 91 106.5 93.9 112.5C96.1 116.9 100.3 122.4 107.5 129.9C123 146.3 126.6 152.4 127.7 163.5C128.8 175.6 123.9 199.9 116.1 220.4C113.9 226.4 112 231.5 112 231.7C112 231.9 122.1 232 134.4 232L156.9 232L159.9 224.2C163.9 213.8 169.4 195.2 171.1 186.5C171.8 182.6 172.5 174.5 172.5 168.5C172.5 158 172.3 157.1 169.2 150.8C166.9 146 162.9 140.8 155.5 133.1C149.9 127.1 143.8 120.1 142.1 117.6C135.9 108.7 134.6 100.2 137.6 90C139.6 83.2 142 79.5 151.4 68.5C160.2 58.3 163.6 52 165.1 43.2C167.2 31.4 163.2 15.1 156.4 7.1C150.4 0.1 149.9 0 124.8 0L102.5 0L106.2 2.5ZM196.7 2.2C206.4 9.4 211.1 20.6 211.1 36.5C211.2 49.6 208.3 55.8 194.8 71.4C185.6 82 182.8 88.1 182.2 98C181.8 105.2 182 106.4 184.8 112.3C186.9 116.8 190.5 121.6 196.7 128.1C213.2 145.6 217.7 152.9 218.7 163.9C219.8 175.7 214.7 200.2 207 220.7C204.8 226.6 203 231.5 203 231.7C203 231.9 213.1 232 225.4 232L247.9 232L250.9 224.2C259.5 201.9 264.7 177.5 263.7 164.5C262.8 152.6 259.5 147 243.6 130.1C238 124 232.1 116.7 230.4 113.8C227.8 109.1 227.5 107.5 227.5 100C227.5 87.9 229.8 83.2 243.2 67.7C246.9 63.4 251.1 57.5 252.5 54.6C260.7 37.7 255.6 11.6 242.2 2.5C238.6 0 238.4 0 216.1 0L193.6 0L196.7 2.2Z" />
	</g>
</svg>