<?xml version="1.0" standalone="no"?>
<!DOCTYPE svg PUBLIC "-//W3C//DTD SVG 20010904//EN"
 "http://www.w3.org/TR/2001/REC-SVG-20010904/DTD/svg10.dtd">
<svg version="1.0" xmlns="http://www.w3.org/2000/svg"
 width="400.000000pt" height="421.000000pt" viewBox="0 0 400.000000 421.000000"
 preserveAspectRatio="xMidYMid meet">

<g transform="translate(0.000000,421.000000) scale(0.100000,-0.100000)"
fill="#000000" stroke="none">
<path d="M114 4116 c-2 -6 -3 -443 -2 -971 l3 -959 25 -7 25 -6 -25 -4 c-23
-4 -25 -9 -28 -66 -2 -53 0 -63 18 -76 l21 -14 -21 -6 c-20 -5 -20 -5 -18
-969 l3 -963 1895 0 1895 0 3 963 c2 964 2 964 -18 969 l-21 6 21 14 c16 12
20 25 20 74 0 52 -3 61 -22 68 l-22 8 22 5 22 6 -2 969 -3 968 -1893 1 c-1374
1 -1895 -2 -1898 -10z m3766 -963 l0 -943 -1870 0 -1870 0 0 943 0 942 1870 0
1870 0 0 -942z m-3617 -980 c-7 -2 -19 -2 -25 0 -7 3 -2 5 12 5 14 0 19 -2 13
-5z m3520 0 c-7 -2 -19 -2 -25 0 -7 3 -2 5 12 5 14 0 19 -2 13 -5z m-1749 -32
c3 -5 -4 -12 -17 -15 -21 -6 -21 -7 -4 -20 17 -13 17 -14 0 -21 -16 -6 -15 -8
7 -20 l25 -14 -27 -1 c-27 0 -28 2 -28 50 0 43 3 50 19 50 11 0 22 -4 25 -9z
m91 -1 c3 -5 -1 -10 -9 -10 -12 0 -16 -10 -16 -41 0 -24 -4 -38 -10 -34 -5 3
-10 22 -10 41 0 19 -5 34 -11 34 -5 0 -7 5 -4 10 3 6 17 10 30 10 13 0 27 -4
30 -10z m-575 -9 c0 -5 -13 -12 -30 -16 -38 -8 -38 -17 3 -38 47 -23 3 -22
-48 2 l-40 19 30 12 c17 6 39 16 50 20 27 12 35 12 35 1z m388 2 c-24 -6 -23
-18 4 -35 28 -19 18 -48 -17 -48 -14 0 -25 4 -25 9 0 5 9 7 20 4 26 -7 26 12
-1 31 -27 18 -18 46 13 45 17 -1 18 -2 6 -6z m612 -20 l35 -15 -40 -19 c-55
-26 -92 -25 -45 1 l35 19 -32 13 c-18 7 -33 16 -33 21 0 9 26 3 80 -20z m1330
-1068 l0 -945 -1870 0 -1870 0 0 945 0 945 1870 0 1870 0 0 -945z"/>
<path d="M1343 3539 c-161 -5 -323 -12 -360 -16 l-68 -8 0 -530 0 -530 75 -7
c187 -17 910 -30 1280 -24 402 6 816 22 831 32 12 7 12 1051 0 1059 -38 23
-1258 40 -1758 24z m1157 -18 c153 -5 -17 -7 -490 -7 -399 0 -635 3 -525 6
289 8 744 8 1015 1z m-1520 -536 l0 -503 -25 -4 -25 -5 0 512 0 512 25 -5 25
-4 0 -503z m2110 9 c0 -274 1 -504 0 -510 0 -7 -11 -9 -25 -6 l-25 4 0 503 0
504 23 3 c12 2 23 3 24 3 1 -1 3 -226 3 -501z m-70 119 c0 -203 -4 -362 -8
-355 -7 9 -40 12 -133 10 l-124 -3 -3 -116 c-2 -91 0 -119 12 -128 9 -8 51
-11 127 -9 111 3 113 3 120 28 6 21 7 20 8 -12 l1 -38 -1010 0 -1010 0 0 495
0 495 1010 0 1010 0 0 -367z m-190 -458 l0 -75 70 0 c40 0 70 -4 70 -10 0 -6
-35 -10 -85 -10 l-85 0 0 85 c0 69 3 85 15 85 12 0 15 -15 15 -75z m50 55 c0
-11 4 -20 8 -20 5 0 17 9 27 20 17 19 45 27 45 13 0 -4 -10 -17 -22 -30 l-22
-23 28 -29 c36 -38 15 -54 -23 -17 -34 32 -41 33 -41 1 0 -14 -4 -25 -10 -25
-6 0 -10 28 -10 65 0 37 4 65 10 65 6 0 10 -9 10 -20z m-85 -253 c-118 -11
-1443 -11 -1560 0 -56 5 242 8 780 8 534 0 835 -3 780 -8z"/>
<path d="M1210 3311 c-102 -66 -186 -126 -188 -135 -4 -18 13 -22 23 -6 19 31
25 -7 27 -172 l3 -183 330 0 330 0 3 183 c2 165 8 203 27 172 9 -15 25 -12 25
4 0 8 -31 34 -70 58 l-70 43 0 73 c0 57 -3 72 -15 72 -12 0 -15 -15 -15 -79
l0 -80 43 -28 42 -29 0 -184 0 -185 -302 -3 -303 -2 0 187 0 188 141 90 c78
50 147 93 154 97 6 4 41 -13 79 -38 37 -25 69 -44 70 -42 8 9 13 87 6 98 -11
19 -30 3 -30 -26 l0 -25 -52 36 c-29 19 -57 35 -63 35 -5 0 -93 -54 -195 -119z"/>
<path d="M1810 2970 c0 -300 3 -460 10 -460 7 0 10 160 10 460 0 300 -3 460
-10 460 -7 0 -10 -160 -10 -460z"/>
<path d="M1920 3386 c0 -20 -5 -45 -12 -55 -15 -25 6 -53 36 -49 17 2 21 9 19
33 -2 17 -4 46 -5 65 -2 24 -9 36 -20 38 -15 3 -18 -4 -18 -32z m30 -1 c0 -14
-4 -25 -10 -25 -5 0 -10 11 -10 25 0 14 5 25 10 25 6 0 10 -11 10 -25z"/>
<path d="M1377 3303 c-4 -3 -7 -39 -7 -78 0 -53 -4 -76 -16 -85 -22 -19 -13
-60 18 -83 23 -17 31 -19 53 -9 38 18 52 55 31 86 -10 16 -16 46 -16 85 0 33
-3 66 -6 75 -6 16 -45 22 -57 9z m43 -68 c0 -44 -3 -53 -15 -49 -10 4 -15 21
-15 53 0 26 3 51 6 54 15 15 24 -7 24 -58z m29 -119 c-2 -2 -13 8 -23 22 l-19
27 24 -22 c12 -12 21 -24 18 -27z m-59 30 c0 -2 -8 -10 -17 -17 -16 -13 -17
-12 -4 4 13 16 21 21 21 13z m46 -74 c-17 -16 -18 -16 -5 5 7 12 15 20 18 17
3 -2 -3 -12 -13 -22z"/>
<path d="M1895 3260 c-15 -24 17 -40 81 -40 l64 0 0 -73 c0 -72 0 -73 -30 -84
-36 -14 -39 -30 -6 -39 17 -4 34 1 54 16 27 20 30 27 35 108 8 116 3 122 -109
122 -47 0 -86 -5 -89 -10z"/>
<path d="M2157 3252 c-12 -13 -18 -46 -21 -122 -3 -58 -9 -145 -12 -193 -9
-111 -4 -116 113 -117 73 0 83 2 97 22 l16 22 1 -24 c1 -15 4 -9 8 15 3 22 2
43 -3 46 -5 4 -6 34 -2 67 8 67 -3 85 -35 56 -15 -13 -19 -30 -19 -81 0 -52
-3 -65 -17 -69 -10 -3 -26 -10 -35 -15 -11 -5 -19 -5 -23 1 -3 6 -18 10 -32
10 l-26 0 6 68 c5 51 3 73 -7 88 -13 17 -12 21 2 37 11 12 18 42 20 88 l4 69
65 0 65 0 -7 -73 c-6 -61 -4 -75 9 -87 26 -21 34 -3 42 88 9 113 1 122 -111
122 -66 0 -85 -3 -98 -18z"/>
<path d="M2470 3255 c-7 -8 -15 -46 -17 -83 -5 -58 -3 -69 15 -85 16 -15 24
-16 41 -7 23 12 20 30 -5 30 -15 0 -19 54 -8 98 5 19 13 22 53 22 43 0 71 12
71 32 0 4 -31 8 -69 8 -49 0 -72 -4 -81 -15z"/>
<path d="M2870 3255 c-16 -20 -2 -38 26 -32 18 3 24 0 24 -12 0 -10 5 -22 12
-29 15 -15 64 -16 73 -2 4 7 -2 9 -17 5 -31 -7 -50 7 -46 36 2 20 9 24 36 24
34 0 42 9 16 19 -25 10 -41 7 -57 -9 -13 -13 -16 -13 -27 0 -16 19 -24 19 -40
0z m35 -4 c7 -12 -12 -24 -25 -16 -11 7 -4 25 10 25 5 0 11 -4 15 -9z"/>
<path d="M1287 3173 c-11 -10 -8 -53 3 -53 6 0 10 14 10 30 0 31 -2 35 -13 23z"/>
<path d="M1277 3091 c-2 -10 -1 -24 3 -31 6 -10 19 17 20 43 0 15 -18 6 -23
-12z"/>
<path d="M2551 3101 c-12 -8 -10 -12 10 -21 22 -10 24 -16 21 -65 -4 -50 -6
-54 -33 -60 -16 -4 -34 -3 -40 0 -12 8 -59 -13 -59 -27 0 -13 146 -10 158 5
16 20 19 142 3 161 -15 18 -38 20 -60 7z"/>
<path d="M1879 3047 c-23 -19 -27 -32 -34 -105 -9 -114 -2 -122 111 -122 84 0
106 9 84 35 -15 18 -52 19 -68 3 -9 -9 -15 -9 -24 0 -7 7 -23 12 -36 12 -18 0
-23 4 -18 16 3 9 6 41 6 73 0 55 1 57 33 69 31 12 31 13 13 27 -26 20 -36 18
-67 -8z"/>
<path d="M2379 2954 c-9 -11 -9 -18 -1 -26 14 -14 42 -3 42 16 0 20 -27 27
-41 10z"/>
<path d="M2392 2860 c0 -19 2 -27 5 -17 2 9 2 25 0 35 -3 9 -5 1 -5 -18z"/>
<path d="M2454 2879 c-4 -8 0 -9 15 -4 24 7 28 -7 6 -25 -22 -18 -18 -30 8
-29 12 0 16 3 9 6 -10 4 -9 10 4 25 16 16 16 21 4 28 -20 13 -37 12 -46 -1z"/>
<path d="M1043 2760 c-22 -9 -22 -14 -20 -127 l2 -118 47 -3 47 -3 0 120 c0
108 -2 122 -19 131 -22 12 -28 12 -57 0z m57 -59 c0 -18 -6 -31 -17 -35 -10
-3 -24 -9 -30 -12 -9 -4 -13 6 -13 35 0 39 2 41 30 41 26 0 30 -3 30 -29z m0
-57 c0 -8 -5 -12 -10 -9 -6 4 -8 11 -5 16 9 14 15 11 15 -7z m-40 -33 c0 -6
-4 -13 -10 -16 -5 -3 -10 1 -10 9 0 9 5 16 10 16 6 0 10 -4 10 -9z m40 -41 c0
-38 -2 -40 -30 -40 -25 0 -30 4 -30 25 0 15 6 25 14 25 7 0 19 7 26 15 18 22
20 19 20 -25z"/>
<path d="M1133 2644 c0 -98 3 -127 13 -131 21 -8 39 12 54 59 8 24 20 53 28
65 7 12 13 24 13 27 0 3 8 26 19 52 11 25 20 48 20 50 0 2 -33 4 -74 4 l-73 0
0 -126z"/>
<path d="M1340 2755 c-7 -8 -15 -34 -17 -58 -4 -34 -1 -47 17 -67 18 -21 20
-22 14 -5 -15 41 -16 76 -4 105 14 35 9 48 -10 25z"/>
<path d="M1517 2764 c-3 -4 0 -16 8 -28 19 -26 19 -59 0 -96 -9 -17 -11 -30
-6 -30 14 0 41 54 41 80 0 19 -26 80 -34 80 -1 0 -6 -3 -9 -6z"/>
<path d="M1360 2715 c-10 -26 5 -85 21 -85 12 0 11 7 -2 31 -7 14 -7 29 0 50
12 36 -5 40 -19 4z"/>
<path d="M1495 2724 c11 -24 11 -54 0 -79 -8 -18 -7 -19 9 -6 21 17 19 92 -3
99 -11 4 -12 0 -6 -14z"/>
<path d="M1395 2708 c-4 -10 -4 -26 0 -35 8 -17 8 -17 12 0 3 9 3 25 0 35 -4
16 -4 16 -12 0z"/>
<path d="M1468 2690 c-3 -19 -1 -29 6 -27 15 5 20 37 8 49 -6 6 -11 -1 -14
-22z"/>
<path d="M1430 2673 c-1 -16 -7 -56 -14 -90 -14 -66 -12 -75 10 -45 13 16 15
16 28 0 22 -30 24 -21 10 45 -7 34 -13 74 -14 90 0 15 -4 27 -10 27 -5 0 -10
-12 -10 -27z m20 -67 c0 -8 -4 -18 -10 -21 -5 -3 -10 3 -10 14 0 12 5 21 10
21 6 0 10 -6 10 -14z"/>
</g>
</svg>
