<?xml version="1.0" standalone="no"?>
<!DOCTYPE svg PUBLIC "-//W3C//DTD SVG 20010904//EN"
 "http://www.w3.org/TR/2001/REC-SVG-20010904/DTD/svg10.dtd">
<svg version="1.0" xmlns="http://www.w3.org/2000/svg"
 width="469.000000pt" height="471.000000pt" viewBox="0 0 469.000000 471.000000"
 preserveAspectRatio="xMidYMid meet">

<g transform="translate(0.000000,471.000000) scale(0.100000,-0.100000)"
fill="#000000" stroke="none">
<path d="M280 4664 c-109 -29 -180 -90 -229 -194 l-26 -55 0 -2070 0 -2070 29
-59 c36 -73 94 -133 161 -166 l50 -25 2085 0 2085 0 53 29 c102 57 164 146
182 263 7 46 10 710 8 2078 -3 1957 -4 2011 -22 2055 -44 103 -103 162 -206
206 -44 19 -97 19 -2080 21 -1769 2 -2042 0 -2090 -13z m4187 -52 c63 -33 106
-74 139 -134 l29 -53 0 -2075 0 -2075 -29 -58 c-19 -39 -44 -71 -78 -98 -95
-75 80 -70 -2203 -67 l-2050 3 -45 24 c-65 34 -135 112 -157 174 -17 50 -18
147 -18 2092 0 2336 -10 2102 94 2205 100 98 -133 89 2211 87 l2065 -2 42 -23z"/>
<path d="M805 3878 c-3 -7 -4 -706 -3 -1553 l3 -1540 1540 0 1540 0 0 1550 0
1550 -1538 3 c-1225 2 -1539 0 -1542 -10z m3055 -1543 l0 -1515 -1515 0 -1515
0 0 1515 0 1515 1515 0 1515 0 0 -1515z"/>
<path d="M1515 3520 l-39 -40 39 -40 c21 -21 42 -37 48 -33 5 3 -7 22 -27 42
l-36 37 32 31 c18 18 30 35 27 37 -3 3 -23 -12 -44 -34z"/>
<path d="M2030 3490 l0 -50 43 1 c37 1 38 2 13 8 -38 8 -47 31 -12 31 14 0 26
5 26 10 0 6 -11 10 -25 10 -14 0 -25 5 -25 10 0 6 14 10 30 10 17 0 30 5 30
10 0 6 -18 10 -40 10 l-40 0 0 -50z"/>
<path d="M2127 3534 c-4 -4 -7 -27 -7 -51 l0 -44 43 3 42 3 0 45 c0 44 -1 45
-35 48 -20 2 -39 0 -43 -4z m53 -24 c0 -5 -7 -10 -15 -10 -8 0 -15 5 -15 10 0
6 7 10 15 10 8 0 15 -4 15 -10z m8 -42 c-7 -19 -38 -22 -38 -4 0 10 9 16 21
16 12 0 19 -5 17 -12z"/>
<path d="M2224 3526 c-3 -8 -4 -29 -2 -48 3 -32 5 -33 48 -34 30 -1 34 0 13 3
-39 5 -46 33 -8 33 14 0 25 5 25 10 0 6 -11 10 -25 10 -14 0 -25 5 -25 10 0 6
11 10 24 10 14 0 28 5 31 10 4 6 -10 10 -35 10 -26 0 -43 -5 -46 -14z"/>
<path d="M2320 3519 c-15 -27 -5 -66 20 -79 24 -13 56 -5 64 15 7 18 -15 20
-32 3 -17 -17 -35 3 -30 33 3 21 8 24 37 21 29 -2 32 0 21 13 -19 23 -67 19
-80 -6z"/>
<path d="M2432 3528 c-7 -7 -12 -27 -12 -45 0 -26 6 -36 25 -45 34 -15 75 12
75 50 0 35 -16 52 -50 52 -14 0 -31 -5 -38 -12z m66 -34 c4 -29 -23 -51 -43
-34 -16 13 -20 42 -8 54 14 14 48 1 51 -20z"/>
<path d="M2567 3519 c-7 -26 2 -79 13 -79 4 0 7 23 7 50 -1 52 -11 66 -20 29z"/>
<path d="M2606 3514 c-4 -15 -3 -31 3 -37 5 -5 7 -16 4 -25 -4 -10 -1 -13 8
-10 8 3 12 14 11 24 -2 10 -4 31 -3 47 0 35 -15 35 -23 1z"/>
<path d="M2647 3518 c-4 -12 -1 -28 5 -35 5 -7 8 -20 4 -28 -3 -9 0 -15 9 -15
18 0 20 31 3 48 -8 8 -8 15 0 25 7 8 9 17 5 20 -12 12 -21 7 -26 -15z"/>
<path d="M3120 3533 c0 -4 10 -17 22 -30 l21 -23 -23 -25 c-31 -32 -17 -46 15
-15 l25 23 25 -23 c14 -13 28 -20 32 -17 3 4 -4 18 -17 32 l-23 25 23 25 c31
32 17 46 -15 15 l-25 -23 -23 21 c-24 22 -37 28 -37 15z"/>
<path d="M1307 3183 c-4 -3 -7 -386 -7 -850 l0 -843 1055 0 1055 0 0 850 0
850 -1048 0 c-577 0 -1052 -3 -1055 -7z m2053 -848 l0 -795 -1005 0 -1005 0 0
795 0 795 1005 0 1005 0 0 -795z"/>
<path d="M3076 2951 c-23 -24 -34 -41 -27 -45 6 -4 11 -20 11 -37 l0 -29 64 0
64 0 5 38 c4 32 0 42 -31 75 -20 20 -39 37 -42 37 -3 0 -23 -17 -44 -39z"/>
<path d="M1525 2945 c-37 -36 -34 -86 6 -119 17 -14 37 -26 44 -26 33 0 67 22
79 51 17 40 10 75 -22 99 -34 27 -77 25 -107 -5z m93 -11 c32 -22 30 -78 -3
-100 -61 -40 -128 43 -75 96 24 24 48 25 78 4z"/>
<path d="M1570 2912 c0 -16 9 -37 20 -47 17 -16 20 -16 20 -2 0 9 -4 19 -10
22 -5 3 -10 17 -10 31 0 13 -4 24 -10 24 -5 0 -10 -13 -10 -28z"/>
<path d="M1722 2918 c-25 -25 -6 -88 26 -88 25 0 42 20 42 50 0 29 -16 50 -40
50 -9 0 -21 -5 -28 -12z m43 -39 c0 -24 -5 -34 -15 -34 -16 0 -25 37 -16 62
10 26 31 8 31 -28z"/>
<path d="M1820 2898 c-11 -18 -20 -36 -20 -39 0 -14 30 -30 52 -27 31 4 38 47
9 55 -24 6 -26 14 -9 31 9 9 9 12 0 12 -7 0 -21 -15 -32 -32z m36 -29 c10 -17
-13 -36 -27 -22 -12 12 -4 33 11 33 5 0 12 -5 16 -11z"/>
<path d="M1966 2893 l-26 -38 22 -4 c13 -1 26 -8 30 -14 4 -6 13 -4 25 8 13
13 14 20 5 23 -6 2 -12 17 -12 33 0 39 -11 37 -44 -8z m24 -13 c0 -5 -5 -10
-11 -10 -5 0 -7 5 -4 10 3 6 8 10 11 10 2 0 4 -4 4 -10z"/>
<path d="M2050 2906 c0 -16 7 -27 21 -31 26 -9 19 -31 -10 -28 -11 2 -21 -2
-21 -8 0 -6 14 -9 33 -7 24 2 33 8 35 25 3 17 -3 24 -22 29 -29 7 -25 31 7 37
15 3 11 5 -10 6 -29 1 -33 -2 -33 -23z"/>
<path d="M2380 2880 c0 -27 5 -50 10 -50 6 0 10 9 10 20 0 14 7 20 24 20 13 0
29 7 36 15 19 22 -5 45 -46 45 l-34 0 0 -50z m59 31 c18 -11 5 -31 -20 -31
-12 0 -19 7 -19 20 0 21 16 26 39 11z"/>
<path d="M1900 2890 c0 -5 5 -10 10 -10 6 0 10 5 10 10 0 6 -4 10 -10 10 -5 0
-10 -4 -10 -10z"/>
<path d="M2481 2863 c1 -25 3 -30 6 -15 3 13 11 26 19 29 21 8 17 23 -6 23
-17 0 -20 -6 -19 -37z"/>
<path d="M2534 2886 c-12 -31 0 -51 30 -51 36 0 56 26 37 49 -17 20 -60 21
-67 2z m56 -22 c0 -20 -30 -30 -40 -13 -11 17 7 40 26 32 8 -3 14 -12 14 -19z"/>
<path d="M2629 2884 c-16 -20 -2 -46 32 -55 24 -6 22 -8 -21 -22 -8 -3 -1 -6
16 -6 36 -1 44 12 44 65 0 31 -3 34 -29 34 -16 0 -34 -7 -42 -16z m51 -25 c0
-23 -28 -26 -37 -3 -6 16 15 37 29 28 4 -3 8 -14 8 -25z"/>
<path d="M2721 2863 c1 -25 3 -30 6 -15 3 13 11 26 19 29 21 8 17 23 -6 23
-17 0 -20 -6 -19 -37z"/>
<path d="M2770 2890 c0 -7 7 -10 15 -7 8 4 17 2 20 -2 2 -5 -4 -11 -15 -14
-35 -9 -24 -37 14 -37 32 0 33 1 27 33 -5 25 -12 33 -34 35 -16 2 -27 -2 -27
-8z m40 -40 c0 -5 -4 -10 -10 -10 -5 0 -10 5 -10 10 0 6 5 10 10 10 6 0 10 -4
10 -10z"/>
<path d="M2856 2893 c-10 -10 -7 -63 4 -63 6 0 10 11 10 25 0 14 5 25 10 25 6
0 13 1 18 2 4 1 10 -11 13 -28 7 -29 7 -29 8 -3 1 26 22 44 35 32 3 -4 6 -17
6 -30 0 -12 5 -23 10 -23 12 0 13 40 2 56 -7 11 -106 17 -116 7z"/>
<path d="M1905 2840 c-3 -5 -1 -10 4 -10 6 0 11 5 11 10 0 6 -2 10 -4 10 -3 0
-8 -4 -11 -10z"/>
<path d="M1735 2589 c-177 -88 -195 -326 -32 -436 84 -56 190 -56 274 0 126
85 151 259 52 371 -22 24 -59 54 -82 65 -58 28 -156 28 -212 0z m163 -181 c6
-6 12 -19 12 -30 0 -22 -56 -108 -70 -108 -14 0 -12 7 6 35 16 24 15 25 -4 25
-25 0 -52 35 -45 60 9 35 66 45 101 18z m100 -10 c4 -33 -31 -49 -55 -25 -24
24 -8 59 25 55 21 -2 28 -9 30 -30z m-258 -53 c0 -43 -4 -75 -10 -75 -6 0 -10
28 -10 64 0 61 -1 64 -22 59 -22 -4 -23 -4 -4 11 38 31 46 21 46 -59z"/>
<path d="M1832 2401 c-20 -12 -10 -45 14 -49 11 -2 27 4 34 14 12 14 12 18 -5
30 -22 16 -25 17 -43 5z"/>
<path d="M1944 2409 c-3 -6 0 -17 7 -25 18 -17 44 -2 36 20 -7 18 -33 21 -43
5z"/>
<path d="M3016 2529 c-17 -14 -26 -30 -26 -50 0 -65 80 -93 119 -43 27 35 26
59 -4 89 -30 30 -54 31 -89 4z m74 -19 c25 -25 25 -32 2 -60 -14 -18 -25 -21
-45 -16 -38 9 -48 53 -17 78 28 23 35 23 60 -2z"/>
<path d="M2448 2530 c-10 -6 -18 -20 -18 -32 0 -15 4 -18 18 -13 70 28 132 8
132 -43 0 -34 -16 -58 -102 -151 -37 -40 -68 -77 -68 -82 0 -6 50 -8 118 -7
109 3 117 4 117 23 0 18 -8 21 -67 25 l-67 5 30 35 c72 84 89 113 89 151 0 25
-8 47 -23 65 -20 23 -33 28 -83 31 -32 2 -67 -1 -76 -7z"/>
<path d="M2738 2533 c-11 -3 -18 -14 -18 -30 0 -19 4 -24 16 -19 61 23 107 18
124 -14 22 -41 -16 -80 -75 -80 -18 0 -25 -5 -25 -20 0 -16 7 -20 36 -20 19 0
44 -5 55 -10 24 -13 25 -62 2 -81 -22 -19 -93 -16 -126 6 l-27 17 0 -26 c0
-68 174 -74 209 -8 20 37 13 89 -13 109 l-23 19 23 28 c13 15 24 33 24 41 0
28 -25 67 -51 81 -27 13 -94 17 -131 7z"/>
<path d="M1630 1976 c0 -34 -4 -46 -17 -50 -11 -3 -7 -4 7 -3 22 2 25 7 28 50
2 28 -1 47 -7 47 -6 0 -11 -20 -11 -44z"/>
<path d="M1843 1995 c-8 -9 -9 -16 -3 -20 6 -3 10 -17 10 -31 0 -18 5 -24 23
-24 20 1 20 2 5 11 -10 5 -18 16 -18 24 0 8 8 19 18 24 15 9 15 10 0 11 -9 0
-18 4 -20 9 -1 5 -9 3 -15 -4z"/>
<path d="M2482 1998 c-7 -7 -12 -24 -12 -38 0 -33 17 -50 51 -50 32 0 59 23
59 50 0 41 -68 68 -98 38z m72 -20 c13 -21 -2 -51 -26 -56 -16 -3 -48 23 -48
38 0 15 32 41 48 38 8 -2 20 -11 26 -20z"/>
<path d="M2782 1998 c-25 -25 -6 -88 26 -88 25 0 42 20 42 50 0 29 -16 50 -40
50 -9 0 -21 -5 -28 -12z m43 -39 c0 -24 -5 -34 -15 -34 -16 0 -25 37 -16 62
10 26 31 8 31 -28z"/>
<path d="M2920 2000 c-13 -8 -12 -10 3 -10 13 0 17 -9 17 -40 0 -22 5 -40 10
-40 6 0 10 23 10 50 0 51 -9 60 -40 40z"/>
<path d="M2996 1994 c-10 -26 -7 -32 20 -38 30 -8 27 -31 -5 -30 -11 0 -21 -3
-21 -8 0 -16 58 -8 64 8 7 19 -10 44 -30 44 -23 0 -16 28 9 33 20 4 19 4 -4 6
-16 0 -29 -5 -33 -15z"/>
<path d="M1670 1971 c0 -37 12 -51 41 -51 27 0 29 3 28 38 -1 36 -2 36 -8 7
-8 -38 -35 -40 -39 -2 -4 30 -22 37 -22 8z"/>
<path d="M1765 1980 c-8 -13 3 -30 20 -30 8 0 17 -5 21 -11 5 -8 -1 -10 -20
-7 -14 3 -26 1 -26 -3 0 -5 14 -9 30 -9 23 0 30 4 30 20 0 13 -7 20 -20 20
-11 0 -20 5 -20 11 0 6 9 8 20 4 11 -4 20 -2 20 4 0 14 -47 14 -55 1z"/>
<path d="M1941 1953 c1 -21 3 -29 6 -18 12 48 43 55 43 9 0 -13 5 -24 11 -24
6 0 9 14 7 33 -3 28 -7 32 -35 35 -32 3 -33 2 -32 -35z"/>
<path d="M2031 1958 c-1 -37 0 -38 34 -38 33 0 35 2 35 35 0 41 -17 47 -22 8
-4 -38 -31 -36 -39 2 -6 29 -7 29 -8 -7z"/>
<path d="M2596 1973 c-10 -10 -7 -63 4 -63 6 0 10 11 10 25 0 14 5 25 10 25 6
0 13 1 18 2 4 1 10 -11 13 -28 7 -29 7 -29 8 -3 1 26 22 44 35 32 3 -4 6 -17
6 -30 0 -12 5 -23 10 -23 12 0 13 40 2 56 -7 11 -106 17 -116 7z"/>
<path d="M2870 1970 c0 -5 5 -10 10 -10 6 0 10 5 10 10 0 6 -4 10 -10 10 -5 0
-10 -4 -10 -10z"/>
<path d="M2870 1920 c0 -5 5 -10 10 -10 6 0 10 5 10 10 0 6 -4 10 -10 10 -5 0
-10 -4 -10 -10z"/>
<path d="M2332 1778 c-7 -7 -12 -19 -12 -28 0 -8 -9 -21 -20 -28 -25 -16 -29
-87 -4 -96 28 -11 120 -6 132 6 20 20 15 76 -8 90 -11 7 -20 20 -20 28 0 21
-20 40 -40 40 -9 0 -21 -5 -28 -12z m46 -31 c2 -12 -3 -17 -17 -17 -12 0 -21
6 -21 13 0 31 32 34 38 4z m37 -72 c0 -30 -1 -30 -57 -33 l-58 -3 0 36 0 36
58 -3 c56 -3 57 -3 57 -33z"/>
<path d="M2350 1680 c0 -11 5 -20 10 -20 6 0 10 9 10 20 0 11 -4 20 -10 20 -5
0 -10 -9 -10 -20z"/>
<path d="M2307 1289 c-9 -5 -24 -24 -33 -40 -40 -78 47 -165 125 -125 36 19
51 44 51 86 0 65 -86 112 -143 79z m93 -39 c24 -24 25 -48 4 -78 -31 -44 -104
-20 -104 35 0 57 61 82 100 43z"/>
<path d="M3162 1244 c-30 -21 -29 -59 3 -80 23 -15 27 -15 50 0 32 21 33 59 3
80 -12 9 -25 16 -28 16 -3 0 -16 -7 -28 -16z"/>
<path d="M1492 1238 c-19 -19 -15 -66 7 -78 31 -16 49 -12 67 15 24 36 6 75
-34 75 -15 0 -33 -5 -40 -12z"/>
</g>
</svg>
